name rise30.6535peak61.5555fall82.9339.mot
datacolumns 19
datarows 30
range 10.33328900000000 10.38161900000000
endheader
time	ground_force1_vx	ground_force1_vy	ground_force1_vz	ground_force1_px	ground_force1_py	ground_force1_pz	ground_force2_vx	ground_force2_vy	ground_force2_vz	ground_force2_px	ground_force2_py	ground_force2_pz	ground_torque1_x	ground_torque1_y	ground_torque1_z	ground_torque2_x	ground_torque2_y	ground_torque2_z	
10.33328900000000	59.17052400000000	757.81495500000005	57.20223200000000	0.32349900000000	0.00000000000000	0.10498200000000	0.00000000000000	0.00000000000000	0.00000000000000	0.00000000000000	0.00000000000000	0.00000000000000	0.00000000000000	24.23159400000000	0.00000000000000	0.00000000000000	0.00000000000000	0.00000000000000	
10.33496100000000	58.46023500000000	759.95860500000003	57.54640400000000	0.32250300000000	0.00000000000000	0.10512000000000	0.00000000000000	0.00000000000000	0.00000000000000	0.00000000000000	0.00000000000000	0.00000000000000	0.00000000000000	24.44515200000000	0.00000000000000	0.00000000000000	0.00000000000000	0.00000000000000	
10.33662700000000	57.75267300000000	761.97004200000003	57.88662500000000	0.32152000000000	0.00000000000000	0.10525900000000	0.00000000000000	0.00000000000000	0.00000000000000	0.00000000000000	0.00000000000000	0.00000000000000	0.00000000000000	24.65709400000000	0.00000000000000	0.00000000000000	0.00000000000000	0.00000000000000	
10.33829100000000	57.04858800000000	763.85042299999998	58.22222500000000	0.32055000000000	0.00000000000000	0.10540000000000	0.00000000000000	0.00000000000000	0.00000000000000	0.00000000000000	0.00000000000000	0.00000000000000	0.00000000000000	24.86696100000000	0.00000000000000	0.00000000000000	0.00000000000000	0.00000000000000	
10.33996600000000	56.34866200000000	765.60101099999997	58.55249100000000	0.31959100000000	0.00000000000000	0.10554300000000	0.00000000000000	0.00000000000000	0.00000000000000	0.00000000000000	0.00000000000000	0.00000000000000	0.00000000000000	25.07427400000000	0.00000000000000	0.00000000000000	0.00000000000000	0.00000000000000	
10.34162200000000	55.65350700000000	767.22317499999997	58.87667500000000	0.31864400000000	0.00000000000000	0.10568800000000	0.00000000000000	0.00000000000000	0.00000000000000	0.00000000000000	0.00000000000000	0.00000000000000	0.00000000000000	25.27853700000000	0.00000000000000	0.00000000000000	0.00000000000000	0.00000000000000	
10.34328600000000	54.96366900000000	768.71839499999999	59.19399900000000	0.31770600000000	0.00000000000000	0.10583300000000	0.00000000000000	0.00000000000000	0.00000000000000	0.00000000000000	0.00000000000000	0.00000000000000	0.00000000000000	25.47923700000000	0.00000000000000	0.00000000000000	0.00000000000000	0.00000000000000	
10.34496000000000	54.27962700000000	770.08825600000000	59.50366200000000	0.31677900000000	0.00000000000000	0.10598000000000	0.00000000000000	0.00000000000000	0.00000000000000	0.00000000000000	0.00000000000000	0.00000000000000	0.00000000000000	25.67585200000000	0.00000000000000	0.00000000000000	0.00000000000000	0.00000000000000	
10.34662600000000	53.60179700000000	771.33444899999995	59.80484700000000	0.31586000000000	0.00000000000000	0.10612800000000	0.00000000000000	0.00000000000000	0.00000000000000	0.00000000000000	0.00000000000000	0.00000000000000	0.00000000000000	25.86785200000000	0.00000000000000	0.00000000000000	0.00000000000000	0.00000000000000	
10.34828900000000	52.93053400000000	772.45877499999995	60.09672700000000	0.31495000000000	0.00000000000000	0.10627700000000	0.00000000000000	0.00000000000000	0.00000000000000	0.00000000000000	0.00000000000000	0.00000000000000	0.00000000000000	26.05470500000000	0.00000000000000	0.00000000000000	0.00000000000000	0.00000000000000	
10.34995500000000	52.26613500000000	773.46313699999996	60.37847200000000	0.31404600000000	0.00000000000000	0.10642700000000	0.00000000000000	0.00000000000000	0.00000000000000	0.00000000000000	0.00000000000000	0.00000000000000	0.00000000000000	26.23587900000000	0.00000000000000	0.00000000000000	0.00000000000000	0.00000000000000	
10.35162200000000	51.60884100000000	774.34954300000004	60.64925500000000	0.31314900000000	0.00000000000000	0.10657800000000	0.00000000000000	0.00000000000000	0.00000000000000	0.00000000000000	0.00000000000000	0.00000000000000	0.00000000000000	26.41084800000000	0.00000000000000	0.00000000000000	0.00000000000000	0.00000000000000	
10.35329300000000	50.95884300000000	775.12010099999998	60.90825900000000	0.31225700000000	0.00000000000000	0.10672900000000	0.00000000000000	0.00000000000000	0.00000000000000	0.00000000000000	0.00000000000000	0.00000000000000	0.00000000000000	26.57909200000000	0.00000000000000	0.00000000000000	0.00000000000000	0.00000000000000	
10.35495800000000	50.31627900000000	775.77702199999999	61.15468200000000	0.31137000000000	0.00000000000000	0.10688100000000	0.00000000000000	0.00000000000000	0.00000000000000	0.00000000000000	0.00000000000000	0.00000000000000	0.00000000000000	26.74010500000000	0.00000000000000	0.00000000000000	0.00000000000000	0.00000000000000	
10.35662000000000	49.68124400000000	776.32261100000005	61.38774700000000	0.31048600000000	0.00000000000000	0.10703400000000	0.00000000000000	0.00000000000000	0.00000000000000	0.00000000000000	0.00000000000000	0.00000000000000	0.00000000000000	26.89339600000000	0.00000000000000	0.00000000000000	0.00000000000000	0.00000000000000	
10.35828700000000	49.05378900000000	776.75926900000002	61.60670300000000	0.30960400000000	0.00000000000000	0.10718700000000	0.00000000000000	0.00000000000000	0.00000000000000	0.00000000000000	0.00000000000000	0.00000000000000	0.00000000000000	27.03849200000000	0.00000000000000	0.00000000000000	0.00000000000000	0.00000000000000	
10.35995600000000	48.43392600000000	777.08948799999996	61.81083200000000	0.30872500000000	0.00000000000000	0.10734000000000	0.00000000000000	0.00000000000000	0.00000000000000	0.00000000000000	0.00000000000000	0.00000000000000	0.00000000000000	27.17494400000000	0.00000000000000	0.00000000000000	0.00000000000000	0.00000000000000	
10.36163100000000	47.82163100000000	777.31584899999996	61.99945900000000	0.30784600000000	0.00000000000000	0.10749400000000	0.00000000000000	0.00000000000000	0.00000000000000	0.00000000000000	0.00000000000000	0.00000000000000	0.00000000000000	27.30232700000000	0.00000000000000	0.00000000000000	0.00000000000000	0.00000000000000	
10.36329100000000	47.21684800000000	777.44101400000000	62.17195000000000	0.30696700000000	0.00000000000000	0.10764700000000	0.00000000000000	0.00000000000000	0.00000000000000	0.00000000000000	0.00000000000000	0.00000000000000	0.00000000000000	27.42024500000000	0.00000000000000	0.00000000000000	0.00000000000000	0.00000000000000	
10.36495300000000	46.61949200000000	777.46772699999997	62.32772200000000	0.30608600000000	0.00000000000000	0.10780000000000	0.00000000000000	0.00000000000000	0.00000000000000	0.00000000000000	0.00000000000000	0.00000000000000	0.00000000000000	27.52833200000000	0.00000000000000	0.00000000000000	0.00000000000000	0.00000000000000	
10.36661900000000	46.02945200000000	777.39880700000003	62.46624200000000	0.30520400000000	0.00000000000000	0.10795400000000	0.00000000000000	0.00000000000000	0.00000000000000	0.00000000000000	0.00000000000000	0.00000000000000	0.00000000000000	27.62625500000000	0.00000000000000	0.00000000000000	0.00000000000000	0.00000000000000	
10.36829000000000	45.44659600000000	777.23714199999995	62.58703700000000	0.30431900000000	0.00000000000000	0.10810700000000	0.00000000000000	0.00000000000000	0.00000000000000	0.00000000000000	0.00000000000000	0.00000000000000	0.00000000000000	27.71371700000000	0.00000000000000	0.00000000000000	0.00000000000000	0.00000000000000	
10.36996100000000	44.87077200000000	776.98568799999998	62.68969200000000	0.30343000000000	0.00000000000000	0.10826000000000	0.00000000000000	0.00000000000000	0.00000000000000	0.00000000000000	0.00000000000000	0.00000000000000	0.00000000000000	27.79045900000000	0.00000000000000	0.00000000000000	0.00000000000000	0.00000000000000	
10.37162400000000	44.30181300000000	776.64746000000002	62.77385700000000	0.30253700000000	0.00000000000000	0.10841200000000	0.00000000000000	0.00000000000000	0.00000000000000	0.00000000000000	0.00000000000000	0.00000000000000	0.00000000000000	27.85625900000000	0.00000000000000	0.00000000000000	0.00000000000000	0.00000000000000	
10.37328600000000	43.73954000000000	776.22552800000005	62.83924500000000	0.30163900000000	0.00000000000000	0.10856400000000	0.00000000000000	0.00000000000000	0.00000000000000	0.00000000000000	0.00000000000000	0.00000000000000	0.00000000000000	27.91093600000000	0.00000000000000	0.00000000000000	0.00000000000000	0.00000000000000	
10.37495800000000	43.18376400000000	775.72301200000004	62.88563800000000	0.30073500000000	0.00000000000000	0.10871500000000	0.00000000000000	0.00000000000000	0.00000000000000	0.00000000000000	0.00000000000000	0.00000000000000	0.00000000000000	27.95435200000000	0.00000000000000	0.00000000000000	0.00000000000000	0.00000000000000	
10.37662600000000	42.63429000000000	775.14307499999995	62.91288700000000	0.29982500000000	0.00000000000000	0.10886600000000	0.00000000000000	0.00000000000000	0.00000000000000	0.00000000000000	0.00000000000000	0.00000000000000	0.00000000000000	27.98640800000000	0.00000000000000	0.00000000000000	0.00000000000000	0.00000000000000	
10.37829800000000	42.09091700000000	774.48891900000001	62.92091000000000	0.29890800000000	0.00000000000000	0.10901600000000	0.00000000000000	0.00000000000000	0.00000000000000	0.00000000000000	0.00000000000000	0.00000000000000	0.00000000000000	28.00705000000000	0.00000000000000	0.00000000000000	0.00000000000000	0.00000000000000	
10.37995500000000	41.55344500000000	773.76377700000000	62.90969700000000	0.29798400000000	0.00000000000000	0.10916500000000	0.00000000000000	0.00000000000000	0.00000000000000	0.00000000000000	0.00000000000000	0.00000000000000	0.00000000000000	28.01626400000000	0.00000000000000	0.00000000000000	0.00000000000000	0.00000000000000	
10.38161900000000	41.02167400000000	772.97091000000000	62.87930700000000	0.29705300000000	0.00000000000000	0.10931300000000	0.00000000000000	0.00000000000000	0.00000000000000	0.00000000000000	0.00000000000000	0.00000000000000	0.00000000000000	28.01408100000000	0.00000000000000	0.00000000000000	0.00000000000000	0.00000000000000	
